<svg id="Livello_1" data-name="Livello 1" xmlns="http://www.w3.org/2000/svg" xmlns:xlink="http://www.w3.org/1999/xlink" viewBox="0 0 893.38 474.89"><defs><style>.cls-1{fill:#b464a7;}.cls-2{fill:#60a1bd;}.cls-3{fill:#46b4b6;}.cls-4{fill:url(#Sfumatura_senza_nome_20);}.cls-5{fill:url(#Sfumatura_senza_nome_20-2);}.cls-6{fill:url(#Sfumatura_senza_nome_20-3);}.cls-7{fill:url(#Sfumatura_senza_nome_5);}.cls-8{fill:url(#Sfumatura_senza_nome_5-2);}.cls-9{fill:url(#Sfumatura_senza_nome_5-3);}.cls-10{fill:url(#Sfumatura_senza_nome_32);}.cls-11{fill:url(#Sfumatura_senza_nome_32-2);}.cls-12{fill:url(#Sfumatura_senza_nome_32-3);}.cls-13{fill:#0b222b;}.cls-13,.cls-14,.cls-15,.cls-16,.cls-17{fill-rule:evenodd;}.cls-14{fill:url(#Sfumatura_senza_nome_42);}.cls-15{fill:#f4898c;}.cls-16{fill:url(#Sfumatura_senza_nome_42-2);}.cls-17{fill:url(#Sfumatura_senza_nome_42-3);}.cls-18{fill:url(#Sfumatura_senza_nome_5-4);}.cls-19{fill:url(#Sfumatura_senza_nome_5-5);}.cls-20{fill:url(#Sfumatura_senza_nome_5-6);}.cls-21{font-size:72px;font-family:FranklinGothic-Heavy, Franklin Gothic Heavy;font-weight:800;}.cls-22{font-size:48px;font-family:FranklinGothic-DemiCond, Franklin Gothic Demi Cond;font-weight:300;}.cls-23{letter-spacing:-0.04em;}.cls-24{letter-spacing:0em;}.cls-25{letter-spacing:0em;}.cls-26{letter-spacing:0em;}</style><linearGradient id="Sfumatura_senza_nome_20" x1="208.67" y1="313.71" x2="322.83" y2="313.71" gradientUnits="userSpaceOnUse"><stop offset="0" stop-color="#60a1bd"/><stop offset="0.51" stop-color="#4e95b8"/><stop offset="1" stop-color="#5089a1"/></linearGradient><linearGradient id="Sfumatura_senza_nome_20-2" x1="146.63" y1="342.29" x2="302.98" y2="342.29" xlink:href="#Sfumatura_senza_nome_20"/><linearGradient id="Sfumatura_senza_nome_20-3" x1="170.63" y1="370.01" x2="252.11" y2="370.01" xlink:href="#Sfumatura_senza_nome_20"/><linearGradient id="Sfumatura_senza_nome_5" x1="176.41" y1="202.65" x2="259.55" y2="202.65" gradientUnits="userSpaceOnUse"><stop offset="0" stop-color="#c47fae"/><stop offset="1" stop-color="#8c4e90"/></linearGradient><linearGradient id="Sfumatura_senza_nome_5-2" x1="160.28" y1="238.18" x2="300.5" y2="238.18" xlink:href="#Sfumatura_senza_nome_5"/><linearGradient id="Sfumatura_senza_nome_5-3" x1="206.18" y1="269.22" x2="298.21" y2="269.22" xlink:href="#Sfumatura_senza_nome_5"/><linearGradient id="Sfumatura_senza_nome_32" x1="156.29" y1="427.88" x2="264.52" y2="427.88" gradientUnits="userSpaceOnUse"><stop offset="0" stop-color="#46b4b6"/><stop offset="0.87" stop-color="#5089a1"/><stop offset="1" stop-color="#47a5a8"/></linearGradient><linearGradient id="Sfumatura_senza_nome_32-2" x1="154.08" y1="459.52" x2="316.63" y2="459.52" xlink:href="#Sfumatura_senza_nome_32"/><linearGradient id="Sfumatura_senza_nome_32-3" x1="186.34" y1="497.98" x2="317.87" y2="497.98" xlink:href="#Sfumatura_senza_nome_32"/><linearGradient id="Sfumatura_senza_nome_42" x1="134.13" y1="367.07" x2="331.64" y2="367.07" gradientUnits="userSpaceOnUse"><stop offset="0" stop-color="#f3ac93"/><stop offset="0.51" stop-color="#ed8790"/><stop offset="1" stop-color="#ef8d8e"/></linearGradient><linearGradient id="Sfumatura_senza_nome_42-2" x1="132.89" y1="370.8" x2="330.4" y2="370.8" xlink:href="#Sfumatura_senza_nome_42"/><linearGradient id="Sfumatura_senza_nome_42-3" x1="132.89" y1="343.88" x2="330.39" y2="343.88" xlink:href="#Sfumatura_senza_nome_42"/><linearGradient id="Sfumatura_senza_nome_5-4" x1="710.88" y1="385.06" x2="794.02" y2="385.06" xlink:href="#Sfumatura_senza_nome_5"/><linearGradient id="Sfumatura_senza_nome_5-5" x1="694.75" y1="420.59" x2="834.97" y2="420.59" xlink:href="#Sfumatura_senza_nome_5"/><linearGradient id="Sfumatura_senza_nome_5-6" x1="740.65" y1="451.63" x2="832.68" y2="451.63" xlink:href="#Sfumatura_senza_nome_5"/></defs><title>genesis</title><path class="cls-1" d="M172.82,199.55h82.87a3.08,3.08,0,0,1,.14,1.3v13.53a3.08,3.08,0,0,1-.14,1.3H172.82a3.4,3.4,0,0,1-.13-1.3V200.85A3.4,3.4,0,0,1,172.82,199.55Z" transform="translate(-129.17 -118.03)"/><path class="cls-1" d="M156.69,235.21h140c.08,0,.14.4.14.89v11c0,.5-.06.89-.14.89H156.69c-.07,0-.14-.39-.14-.89v-11C156.55,235.61,156.62,235.21,156.69,235.21Z" transform="translate(-129.17 -118.03)"/><path class="cls-1" d="M201.6,268.6h91.68a2.71,2.71,0,0,1,.17,1.3v8.57a2.68,2.68,0,0,1-.17,1.3H201.6c-.1,0-.18-.58-.18-1.3V269.9C201.42,269.19,201.5,268.6,201.6,268.6Z" transform="translate(-129.17 -118.03)"/><path class="cls-2" d="M205.09,312.47H319a3.08,3.08,0,0,1,.14,1.3v9.81a3.08,3.08,0,0,1-.14,1.3H205.09a3.08,3.08,0,0,1-.14-1.3v-9.81A3.08,3.08,0,0,1,205.09,312.47Z" transform="translate(-129.17 -118.03)"/><path class="cls-2" d="M143,340.93H299.12c.08,0,.14.43.14.95V350c0,.52-.06.95-.14.95H143c-.07,0-.14-.43-.14-.95v-8.11C142.9,341.36,143,340.93,143,340.93Z" transform="translate(-129.17 -118.03)"/><path class="cls-2" d="M166.64,368.62h81.17c.09,0,.16.33.16.73v6.92c0,.4-.07.73-.16.73H166.64c-.08,0-.15-.33-.15-.73v-6.92C166.49,369,166.56,368.62,166.64,368.62Z" transform="translate(-129.17 -118.03)"/><path class="cls-3" d="M153,425.39h108a3.4,3.4,0,0,1,.13,1.3V439a3.4,3.4,0,0,1-.13,1.3H153a3.52,3.52,0,0,1-.12-1.3V426.69A3.52,3.52,0,0,1,153,425.39Z" transform="translate(-129.17 -118.03)"/><path class="cls-3" d="M150.49,457.65H312.77c.08,0,.14.44.14,1v9.22c0,.53-.06,1-.14,1H150.49c-.07,0-.13-.44-.13-1v-9.22C150.36,458.09,150.42,457.65,150.49,457.65Z" transform="translate(-129.17 -118.03)"/><path class="cls-3" d="M182.75,496.12H314a3.08,3.08,0,0,1,.14,1.3v11.05a3.08,3.08,0,0,1-.14,1.3H182.75a3.4,3.4,0,0,1-.13-1.3V497.42A3.4,3.4,0,0,1,182.75,496.12Z" transform="translate(-129.17 -118.03)"/><path class="cls-2" d="M176.54,194.59h82.87a3.05,3.05,0,0,1,.14,1.29v13.54a3.12,3.12,0,0,1-.14,1.3H176.54a3.44,3.44,0,0,1-.13-1.3V195.88A3.36,3.36,0,0,1,176.54,194.59Z" transform="translate(-129.17 -118.03)"/><path class="cls-2" d="M160.41,231.81h140c.08,0,.14.4.14.89v11c0,.49-.06.89-.14.89h-140c-.07,0-.13-.4-.13-.89v-11C160.28,232.21,160.34,231.81,160.41,231.81Z" transform="translate(-129.17 -118.03)"/><path class="cls-2" d="M206.36,263.63H298a2.71,2.71,0,0,1,.17,1.3v8.57a2.68,2.68,0,0,1-.17,1.3H206.36c-.1,0-.18-.58-.18-1.3v-8.57C206.18,264.22,206.26,263.63,206.36,263.63Z" transform="translate(-129.17 -118.03)"/><path class="cls-4" d="M208.81,307.51H322.69a3.08,3.08,0,0,1,.14,1.3v9.81a3.08,3.08,0,0,1-.14,1.3H208.81a3.08,3.08,0,0,1-.14-1.3v-9.81A3.08,3.08,0,0,1,208.81,307.51Z" transform="translate(-129.17 -118.03)"/><path class="cls-5" d="M146.76,337.28H302.84c.08,0,.14.43.14,1v8.1c0,.53-.06,1-.14,1H146.76c-.07,0-.13-.42-.13-1v-8.1C146.63,337.71,146.69,337.28,146.76,337.28Z" transform="translate(-129.17 -118.03)"/><path class="cls-6" d="M170.78,365.83H252c.08,0,.15.32.15.73v6.91c0,.4-.07.73-.15.73H170.78c-.08,0-.15-.33-.15-.73v-6.91C170.63,366.15,170.7,365.83,170.78,365.83Z" transform="translate(-129.17 -118.03)"/><path class="cls-2" d="M156.41,420.43h108a3.4,3.4,0,0,1,.13,1.3V434a3.4,3.4,0,0,1-.13,1.3h-108a3.52,3.52,0,0,1-.12-1.3V421.73A3.52,3.52,0,0,1,156.41,420.43Z" transform="translate(-129.17 -118.03)"/><path class="cls-2" d="M154.21,453.93H316.49c.08,0,.14.44.14,1v9.22c0,.53-.06,1-.14,1H154.21c-.07,0-.13-.44-.13-1v-9.22C154.08,454.37,154.14,453.93,154.21,453.93Z" transform="translate(-129.17 -118.03)"/><path class="cls-2" d="M186.48,491.16H317.73a3.08,3.08,0,0,1,.14,1.3v11.05a3.08,3.08,0,0,1-.14,1.3H186.48a3.08,3.08,0,0,1-.14-1.3V492.46A3.08,3.08,0,0,1,186.48,491.16Z" transform="translate(-129.17 -118.03)"/><path class="cls-7" d="M176.54,194.59h82.87a3.05,3.05,0,0,1,.14,1.29v13.54a3.12,3.12,0,0,1-.14,1.3H176.54a3.44,3.44,0,0,1-.13-1.3V195.88A3.36,3.36,0,0,1,176.54,194.59Z" transform="translate(-129.17 -118.03)"/><path class="cls-8" d="M160.41,231.81h140c.08,0,.14.4.14.89v11c0,.49-.06.89-.14.89h-140c-.07,0-.13-.4-.13-.89v-11C160.28,232.21,160.34,231.81,160.41,231.81Z" transform="translate(-129.17 -118.03)"/><path class="cls-9" d="M206.36,263.63H298a2.71,2.71,0,0,1,.17,1.3v8.57a2.68,2.68,0,0,1-.17,1.3H206.36c-.1,0-.18-.58-.18-1.3v-8.57C206.18,264.22,206.26,263.63,206.36,263.63Z" transform="translate(-129.17 -118.03)"/><path class="cls-2" d="M170.78,365.83H252c.08,0,.15.32.15.73v6.91c0,.4-.07.73-.15.73H170.78c-.08,0-.15-.33-.15-.73v-6.91C170.63,366.15,170.7,365.83,170.78,365.83Z" transform="translate(-129.17 -118.03)"/><path class="cls-10" d="M156.41,420.43h108a3.4,3.4,0,0,1,.13,1.3V434a3.4,3.4,0,0,1-.13,1.3h-108a3.52,3.52,0,0,1-.12-1.3V421.73A3.52,3.52,0,0,1,156.41,420.43Z" transform="translate(-129.17 -118.03)"/><path class="cls-11" d="M154.21,453.93H316.49c.08,0,.14.44.14,1v9.22c0,.53-.06,1-.14,1H154.21c-.07,0-.13-.44-.13-1v-9.22C154.08,454.37,154.14,453.93,154.21,453.93Z" transform="translate(-129.17 -118.03)"/><path class="cls-12" d="M186.48,491.16H317.73a3.08,3.08,0,0,1,.14,1.3v11.05a3.08,3.08,0,0,1-.14,1.3H186.48a3.08,3.08,0,0,1-.14-1.3V492.46A3.08,3.08,0,0,1,186.48,491.16Z" transform="translate(-129.17 -118.03)"/><path class="cls-13" d="M151.6,591.67S331.84,534,326.56,480s-148.7-77.51-173.72-129.06c-19-39.18,133.45-9.58,156.35-89.34,14.29-49.8-157.59-114.16-157.59-114.16l-5,16.13s148.29,56.46,143.94,103S124.92,292.31,129.26,349.7s194.42,88.67,175,140.22C288.34,532,144.45,567.2,147.87,569.34l3.72,22.34Z" transform="translate(-129.17 -118.03)"/><path class="cls-13" d="M304.25,564.75s-180.25-57.7-175-111.68S278,375.56,303,324c19-39.19-133.46-9.59-156.36-89.35-14.29-49.8,157.6-114.16,157.6-114.16l5,16.13s-148.29,56.46-143.94,103,165.66,25.75,161.31,83.14S132.16,411.45,151.62,463C167.5,505.08,311.39,540.28,308,542.42l-3.72,22.34Z" transform="translate(-129.17 -118.03)"/><path class="cls-14" d="M156.56,589.19s180.24-57.71,175-111.68S182.82,400,157.8,348.45c-19-39.18,133.45-9.58,156.35-89.34C328.45,209.31,156.56,145,156.56,145l-5,16.13s148.29,56.46,144,103-165.66,25.75-161.32,83.14,194.42,88.66,175,140.22c-15.88,42.08-159.78,77.28-156.36,79.42l3.73,22.34Z" transform="translate(-129.17 -118.03)"/><path class="cls-15" d="M309.21,562.27s-180.24-57.7-175-111.68,148.7-77.51,173.73-129c19-39.19-133.46-9.59-156.36-89.35C137.32,182.39,309.21,118,309.21,118l5,16.13s-148.29,56.46-143.94,103,165.66,25.75,161.31,83.14S137.12,409,156.58,460.52c15.88,42.08,159.77,77.28,156.35,79.42l-3.72,22.34Z" transform="translate(-129.17 -118.03)"/><path class="cls-16" d="M155.32,592.92s180.24-57.71,175-111.68-148.7-77.52-173.72-129.06C137.53,313,290,342.6,312.91,262.84c14.3-49.8-157.59-114.16-157.59-114.16l-5,16.13s148.29,56.46,144,103S128.64,293.56,133,351,327.4,439.61,308,491.17c-15.88,42.08-159.78,77.28-156.36,79.42l3.73,22.34Z" transform="translate(-129.17 -118.03)"/><path class="cls-17" d="M308,566S127.73,508.3,133,454.32s148.7-77.51,173.73-129c19-39.19-133.46-9.59-156.36-89.35C136.08,186.12,308,121.76,308,121.76l5,16.13S164.64,194.35,169,240.89,334.65,266.64,330.3,324s-194.42,88.67-175,140.22c15.88,42.08,159.77,77.28,156.35,79.42L308,566Z" transform="translate(-129.17 -118.03)"/><path class="cls-1" d="M706.67,378.24h82.87a3.08,3.08,0,0,1,.14,1.3v13.53a3.08,3.08,0,0,1-.14,1.3H706.67a3.4,3.4,0,0,1-.13-1.3V379.54A3.4,3.4,0,0,1,706.67,378.24Z" transform="translate(-129.17 -118.03)"/><path class="cls-1" d="M690.54,413.9h140c.08,0,.14.4.14.89v11c0,.49-.06.89-.14.89h-140c-.08,0-.14-.4-.14-.89v-11C690.4,414.3,690.46,413.9,690.54,413.9Z" transform="translate(-129.17 -118.03)"/><path class="cls-1" d="M735.45,447.3h91.68a2.68,2.68,0,0,1,.17,1.3v8.57a2.71,2.71,0,0,1-.17,1.3H735.45c-.1,0-.18-.59-.18-1.3V448.6C735.27,447.88,735.35,447.3,735.45,447.3Z" transform="translate(-129.17 -118.03)"/><path class="cls-18" d="M711,377h82.87a3.08,3.08,0,0,1,.14,1.3v13.53a3.08,3.08,0,0,1-.14,1.3H711a3.4,3.4,0,0,1-.13-1.3V378.3A3.4,3.4,0,0,1,711,377Z" transform="translate(-129.17 -118.03)"/><path class="cls-19" d="M694.88,414.22h140c.08,0,.14.4.14.89v11c0,.49-.06.89-.14.89h-140c-.07,0-.13-.4-.13-.89v-11C694.75,414.62,694.81,414.22,694.88,414.22Z" transform="translate(-129.17 -118.03)"/><path class="cls-20" d="M740.83,446.05h91.68a2.68,2.68,0,0,1,.17,1.3v8.56a2.68,2.68,0,0,1-.17,1.3H740.83c-.1,0-.18-.58-.18-1.3v-8.56C740.65,446.63,740.73,446.05,740.83,446.05Z" transform="translate(-129.17 -118.03)"/><text class="cls-21" transform="translate(77.01 203.58)">GENE SI.S.</text><text class="cls-22" transform="translate(79.5 269.46)"><tspan class="cls-23">T</tspan><tspan x="17.11" y="0">e</tspan><tspan class="cls-24" x="39.19" y="0">s</tspan><tspan x="58.99" y="0">t &amp; Analysis </tspan><tspan class="cls-25" x="281.27" y="0">A</tspan><tspan x="306.05" y="0">u</tspan><tspan class="cls-26" x="328.95" y="0">t</tspan><tspan x="343.8" y="0">omation</tspan></text></svg>